<svg xmlns="http://www.w3.org/2000/svg" width="3480" height="2738" viewBox="0 0 3480 2738">
<defs>
  <marker id="arrow" markerWidth="10" markerHeight="10" refX="8" refY="3" orient="auto" markerUnits="strokeWidth"><path d="M0,0 L0,6 L9,3 z" fill="#93c5fd"/></marker>
</defs>
<rect width="100%" height="100%" fill="#0f172a"/>
<text x="24" y="36" fill="#e5e7eb" font-family="Helvetica, Arial, sans-serif" font-size="24" font-weight="700">daily_loaf_flow version 1 interaction path 1: SoldOutClosed</text>
<rect x="205" y="54" width="150" height="38" rx="8" fill="#111827" stroke="#64748b"/>
<text x="280" y="78" text-anchor="middle" fill="#e5e7eb" font-family="Helvetica, Arial, sans-serif" font-size="16" font-weight="700">bakers</text>
<line x1="280" y1="62" x2="280" y2="2666" stroke="#475569" stroke-width="2" stroke-dasharray="7 7"/>
<rect x="445" y="54" width="150" height="38" rx="8" fill="#111827" stroke="#64748b"/>
<text x="520" y="78" text-anchor="middle" fill="#e5e7eb" font-family="Helvetica, Arial, sans-serif" font-size="16" font-weight="700">bakery</text>
<line x1="520" y1="62" x2="520" y2="2666" stroke="#475569" stroke-width="2" stroke-dasharray="7 7"/>
<rect x="685" y="54" width="150" height="38" rx="8" fill="#111827" stroke="#64748b"/>
<text x="760" y="78" text-anchor="middle" fill="#e5e7eb" font-family="Helvetica, Arial, sans-serif" font-size="16" font-weight="700">inventory</text>
<line x1="760" y1="62" x2="760" y2="2666" stroke="#475569" stroke-width="2" stroke-dasharray="7 7"/>
<rect x="925" y="54" width="150" height="38" rx="8" fill="#111827" stroke="#64748b"/>
<text x="1000" y="78" text-anchor="middle" fill="#e5e7eb" font-family="Helvetica, Arial, sans-serif" font-size="16" font-weight="700">manager</text>
<line x1="1000" y1="62" x2="1000" y2="2666" stroke="#475569" stroke-width="2" stroke-dasharray="7 7"/>
<rect x="1165" y="54" width="150" height="38" rx="8" fill="#111827" stroke="#64748b"/>
<text x="1240" y="78" text-anchor="middle" fill="#e5e7eb" font-family="Helvetica, Arial, sans-serif" font-size="16" font-weight="700">oven_carousel</text>
<line x1="1240" y1="62" x2="1240" y2="2666" stroke="#475569" stroke-width="2" stroke-dasharray="7 7"/>
<rect x="1405" y="54" width="150" height="38" rx="8" fill="#111827" stroke="#64748b"/>
<text x="1480" y="78" text-anchor="middle" fill="#e5e7eb" font-family="Helvetica, Arial, sans-serif" font-size="16" font-weight="700">cooling_rack</text>
<line x1="1480" y1="62" x2="1480" y2="2666" stroke="#475569" stroke-width="2" stroke-dasharray="7 7"/>
<rect x="1645" y="54" width="150" height="38" rx="8" fill="#111827" stroke="#64748b"/>
<text x="1720" y="78" text-anchor="middle" fill="#e5e7eb" font-family="Helvetica, Arial, sans-serif" font-size="16" font-weight="700">wrapping_station</text>
<line x1="1720" y1="62" x2="1720" y2="2666" stroke="#475569" stroke-width="2" stroke-dasharray="7 7"/>
<rect x="1885" y="54" width="150" height="38" rx="8" fill="#111827" stroke="#64748b"/>
<text x="1960" y="78" text-anchor="middle" fill="#e5e7eb" font-family="Helvetica, Arial, sans-serif" font-size="16" font-weight="700">truck</text>
<line x1="1960" y1="62" x2="1960" y2="2666" stroke="#475569" stroke-width="2" stroke-dasharray="7 7"/>
<rect x="2125" y="54" width="150" height="38" rx="8" fill="#111827" stroke="#64748b"/>
<text x="2200" y="78" text-anchor="middle" fill="#e5e7eb" font-family="Helvetica, Arial, sans-serif" font-size="16" font-weight="700">storefront</text>
<line x1="2200" y1="62" x2="2200" y2="2666" stroke="#475569" stroke-width="2" stroke-dasharray="7 7"/>
<rect x="2365" y="54" width="150" height="38" rx="8" fill="#111827" stroke="#64748b"/>
<text x="2440" y="78" text-anchor="middle" fill="#e5e7eb" font-family="Helvetica, Arial, sans-serif" font-size="16" font-weight="700">customers</text>
<line x1="2440" y1="62" x2="2440" y2="2666" stroke="#475569" stroke-width="2" stroke-dasharray="7 7"/>
<rect x="2605" y="54" width="150" height="38" rx="8" fill="#111827" stroke="#64748b"/>
<text x="2680" y="78" text-anchor="middle" fill="#e5e7eb" font-family="Helvetica, Arial, sans-serif" font-size="16" font-weight="700">stripe</text>
<line x1="2680" y1="62" x2="2680" y2="2666" stroke="#475569" stroke-width="2" stroke-dasharray="7 7"/>
<rect x="2845" y="54" width="150" height="38" rx="8" fill="#111827" stroke="#64748b"/>
<text x="2920" y="78" text-anchor="middle" fill="#e5e7eb" font-family="Helvetica, Arial, sans-serif" font-size="16" font-weight="700">employees</text>
<line x1="2920" y1="62" x2="2920" y2="2666" stroke="#475569" stroke-width="2" stroke-dasharray="7 7"/>
<rect x="3085" y="54" width="150" height="38" rx="8" fill="#111827" stroke="#64748b"/>
<text x="3160" y="78" text-anchor="middle" fill="#e5e7eb" font-family="Helvetica, Arial, sans-serif" font-size="16" font-weight="700">charity</text>
<line x1="3160" y1="62" x2="3160" y2="2666" stroke="#475569" stroke-width="2" stroke-dasharray="7 7"/>
<rect x="24" y="116" width="210" height="52" rx="8" fill="#1e293b" stroke="#64748b"/>
<text x="36" y="134" fill="#94a3b8" font-family="Helvetica, Arial, sans-serif" font-size="12">state transition</text>
<text x="36" y="155" fill="#e5e7eb" font-family="Helvetica, Arial, sans-serif" font-size="14" font-weight="700">BeforeDawn → Planning</text>
<line x1="280" y1="170" x2="520" y2="170" stroke="#93c5fd" stroke-width="2.4" marker-end="url(#arrow)"/>
<text x="400" y="132" text-anchor="middle" fill="#e5e7eb" font-family="Helvetica, Arial, sans-serif" font-size="14">BakersArrive</text>
<circle cx="280" cy="170" r="4" fill="#93c5fd"/>
<circle cx="520" cy="170" r="4" fill="#93c5fd"/>
<rect x="24" y="272" width="210" height="52" rx="8" fill="#1e293b" stroke="#64748b"/>
<text x="36" y="290" fill="#94a3b8" font-family="Helvetica, Arial, sans-serif" font-size="12">state transition</text>
<text x="36" y="311" fill="#e5e7eb" font-family="Helvetica, Arial, sans-serif" font-size="14" font-weight="700">Planning → InventoryCheck</text>
<line x1="520" y1="326" x2="760" y2="326" stroke="#93c5fd" stroke-width="2.4" marker-end="url(#arrow)"/>
<text x="640" y="288" text-anchor="middle" fill="#e5e7eb" font-family="Helvetica, Arial, sans-serif" font-size="14">DailyBakePlan</text>
<circle cx="520" cy="326" r="4" fill="#93c5fd"/>
<circle cx="760" cy="326" r="4" fill="#93c5fd"/>
<rect x="24" y="428" width="210" height="52" rx="8" fill="#1e293b" stroke="#64748b"/>
<text x="36" y="446" fill="#94a3b8" font-family="Helvetica, Arial, sans-serif" font-size="12">state transition</text>
<text x="36" y="467" fill="#e5e7eb" font-family="Helvetica, Arial, sans-serif" font-size="14" font-weight="700">InventoryCheck → DoughMixing</text>
<line x1="760" y1="482" x2="520" y2="482" stroke="#93c5fd" stroke-width="2.4" marker-end="url(#arrow)"/>
<text x="640" y="444" text-anchor="middle" fill="#e5e7eb" font-family="Helvetica, Arial, sans-serif" font-size="14">InventoryDraw</text>
<circle cx="760" cy="482" r="4" fill="#93c5fd"/>
<circle cx="520" cy="482" r="4" fill="#93c5fd"/>
<rect x="24" y="584" width="210" height="52" rx="8" fill="#1e293b" stroke="#64748b"/>
<text x="36" y="602" fill="#94a3b8" font-family="Helvetica, Arial, sans-serif" font-size="12">state transition</text>
<text x="36" y="623" fill="#e5e7eb" font-family="Helvetica, Arial, sans-serif" font-size="14" font-weight="700">DoughMixing → BakeQueue</text>
<line x1="520" y1="638" x2="1240" y2="638" stroke="#93c5fd" stroke-width="2.4" marker-end="url(#arrow)"/>
<text x="880" y="600" text-anchor="middle" fill="#e5e7eb" font-family="Helvetica, Arial, sans-serif" font-size="14">DoughMixed</text>
<circle cx="520" cy="638" r="4" fill="#93c5fd"/>
<circle cx="1240" cy="638" r="4" fill="#93c5fd"/>
<rect x="24" y="740" width="210" height="52" rx="8" fill="#1e293b" stroke="#64748b"/>
<text x="36" y="758" fill="#94a3b8" font-family="Helvetica, Arial, sans-serif" font-size="12">state transition</text>
<text x="36" y="779" fill="#e5e7eb" font-family="Helvetica, Arial, sans-serif" font-size="14" font-weight="700">BakeQueue → Baking</text>
<line x1="520" y1="794" x2="1240" y2="794" stroke="#93c5fd" stroke-width="2.4" marker-end="url(#arrow)"/>
<text x="880" y="756" text-anchor="middle" fill="#e5e7eb" font-family="Helvetica, Arial, sans-serif" font-size="14">BakeSlotRequest</text>
<circle cx="520" cy="794" r="4" fill="#93c5fd"/>
<circle cx="1240" cy="794" r="4" fill="#93c5fd"/>
<rect x="24" y="896" width="210" height="52" rx="8" fill="#1e293b" stroke="#64748b"/>
<text x="36" y="914" fill="#94a3b8" font-family="Helvetica, Arial, sans-serif" font-size="12">state transition</text>
<text x="36" y="935" fill="#e5e7eb" font-family="Helvetica, Arial, sans-serif" font-size="14" font-weight="700">Baking → Baked</text>
<line x1="1240" y1="950" x2="520" y2="950" stroke="#93c5fd" stroke-width="2.4" marker-end="url(#arrow)"/>
<text x="880" y="912" text-anchor="middle" fill="#e5e7eb" font-family="Helvetica, Arial, sans-serif" font-size="14">BakeSlotStarted</text>
<circle cx="1240" cy="950" r="4" fill="#93c5fd"/>
<circle cx="520" cy="950" r="4" fill="#93c5fd"/>
<rect x="24" y="1052" width="210" height="52" rx="8" fill="#1e293b" stroke="#64748b"/>
<text x="36" y="1070" fill="#94a3b8" font-family="Helvetica, Arial, sans-serif" font-size="12">state transition</text>
<text x="36" y="1091" fill="#e5e7eb" font-family="Helvetica, Arial, sans-serif" font-size="14" font-weight="700">Baked → Cooling</text>
<line x1="1240" y1="1106" x2="1480" y2="1106" stroke="#93c5fd" stroke-width="2.4" marker-end="url(#arrow)"/>
<text x="1360" y="1068" text-anchor="middle" fill="#e5e7eb" font-family="Helvetica, Arial, sans-serif" font-size="14">LoavesBaked</text>
<circle cx="1240" cy="1106" r="4" fill="#93c5fd"/>
<circle cx="1480" cy="1106" r="4" fill="#93c5fd"/>
<rect x="24" y="1208" width="210" height="52" rx="8" fill="#1e293b" stroke="#64748b"/>
<text x="36" y="1226" fill="#94a3b8" font-family="Helvetica, Arial, sans-serif" font-size="12">state transition</text>
<text x="36" y="1247" fill="#e5e7eb" font-family="Helvetica, Arial, sans-serif" font-size="14" font-weight="700">Cooling → Wrapping</text>
<line x1="1480" y1="1262" x2="1720" y2="1262" stroke="#93c5fd" stroke-width="2.4" marker-end="url(#arrow)"/>
<text x="1600" y="1224" text-anchor="middle" fill="#e5e7eb" font-family="Helvetica, Arial, sans-serif" font-size="14">CoolingComplete</text>
<circle cx="1480" cy="1262" r="4" fill="#93c5fd"/>
<circle cx="1720" cy="1262" r="4" fill="#93c5fd"/>
<rect x="24" y="1364" width="210" height="52" rx="8" fill="#1e293b" stroke="#64748b"/>
<text x="36" y="1382" fill="#94a3b8" font-family="Helvetica, Arial, sans-serif" font-size="12">state transition</text>
<text x="36" y="1403" fill="#e5e7eb" font-family="Helvetica, Arial, sans-serif" font-size="14" font-weight="700">Wrapping → TruckLoad</text>
<line x1="1720" y1="1418" x2="1960" y2="1418" stroke="#93c5fd" stroke-width="2.4" marker-end="url(#arrow)"/>
<text x="1840" y="1380" text-anchor="middle" fill="#e5e7eb" font-family="Helvetica, Arial, sans-serif" font-size="14">WrappedAndLabeled</text>
<circle cx="1720" cy="1418" r="4" fill="#93c5fd"/>
<circle cx="1960" cy="1418" r="4" fill="#93c5fd"/>
<rect x="24" y="1520" width="210" height="52" rx="8" fill="#1e293b" stroke="#64748b"/>
<text x="36" y="1538" fill="#94a3b8" font-family="Helvetica, Arial, sans-serif" font-size="12">state transition</text>
<text x="36" y="1559" fill="#e5e7eb" font-family="Helvetica, Arial, sans-serif" font-size="14" font-weight="700">TruckLoad → Delivered</text>
<line x1="520" y1="1574" x2="1960" y2="1574" stroke="#93c5fd" stroke-width="2.4" marker-end="url(#arrow)"/>
<text x="1240" y="1536" text-anchor="middle" fill="#e5e7eb" font-family="Helvetica, Arial, sans-serif" font-size="14">TruckLoadRequest</text>
<circle cx="520" cy="1574" r="4" fill="#93c5fd"/>
<circle cx="1960" cy="1574" r="4" fill="#93c5fd"/>
<rect x="24" y="1676" width="210" height="52" rx="8" fill="#1e293b" stroke="#64748b"/>
<text x="36" y="1694" fill="#94a3b8" font-family="Helvetica, Arial, sans-serif" font-size="12">state transition</text>
<text x="36" y="1715" fill="#e5e7eb" font-family="Helvetica, Arial, sans-serif" font-size="14" font-weight="700">Delivered → Stocked</text>
<line x1="1960" y1="1730" x2="2200" y2="1730" stroke="#93c5fd" stroke-width="2.4" marker-end="url(#arrow)"/>
<text x="2080" y="1692" text-anchor="middle" fill="#e5e7eb" font-family="Helvetica, Arial, sans-serif" font-size="14">DeliveryManifest</text>
<circle cx="1960" cy="1730" r="4" fill="#93c5fd"/>
<circle cx="2200" cy="1730" r="4" fill="#93c5fd"/>
<rect x="24" y="1832" width="210" height="52" rx="8" fill="#1e293b" stroke="#64748b"/>
<text x="36" y="1850" fill="#94a3b8" font-family="Helvetica, Arial, sans-serif" font-size="12">state transition</text>
<text x="36" y="1871" fill="#e5e7eb" font-family="Helvetica, Arial, sans-serif" font-size="14" font-weight="700">Stocked → Demand</text>
<line x1="2200" y1="1886" x2="2440" y2="1886" stroke="#93c5fd" stroke-width="2.4" marker-end="url(#arrow)"/>
<text x="2320" y="1848" text-anchor="middle" fill="#e5e7eb" font-family="Helvetica, Arial, sans-serif" font-size="14">ShelvesStocked</text>
<circle cx="2200" cy="1886" r="4" fill="#93c5fd"/>
<circle cx="2440" cy="1886" r="4" fill="#93c5fd"/>
<rect x="24" y="1988" width="210" height="52" rx="8" fill="#1e293b" stroke="#64748b"/>
<text x="36" y="2006" fill="#94a3b8" font-family="Helvetica, Arial, sans-serif" font-size="12">state transition</text>
<text x="36" y="2027" fill="#e5e7eb" font-family="Helvetica, Arial, sans-serif" font-size="14" font-weight="700">Demand → RushRevenue</text>
<line x1="2440" y1="2042" x2="2200" y2="2042" stroke="#93c5fd" stroke-width="2.4" marker-end="url(#arrow)"/>
<text x="2320" y="2004" text-anchor="middle" fill="#e5e7eb" font-family="Helvetica, Arial, sans-serif" font-size="14">CustomerPurchase</text>
<circle cx="2440" cy="2042" r="4" fill="#93c5fd"/>
<circle cx="2200" cy="2042" r="4" fill="#93c5fd"/>
<rect x="24" y="2144" width="210" height="52" rx="8" fill="#1e293b" stroke="#64748b"/>
<text x="36" y="2162" fill="#94a3b8" font-family="Helvetica, Arial, sans-serif" font-size="12">state transition</text>
<text x="36" y="2183" fill="#e5e7eb" font-family="Helvetica, Arial, sans-serif" font-size="14" font-weight="700">RushRevenue → RushCashClosed</text>
<line x1="2200" y1="2198" x2="2680" y2="2198" stroke="#93c5fd" stroke-width="2.4" marker-end="url(#arrow)"/>
<text x="2440" y="2160" text-anchor="middle" fill="#e5e7eb" font-family="Helvetica, Arial, sans-serif" font-size="14">StripeBatchClosed</text>
<circle cx="2200" cy="2198" r="4" fill="#93c5fd"/>
<circle cx="2680" cy="2198" r="4" fill="#93c5fd"/>
<rect x="24" y="2300" width="210" height="52" rx="8" fill="#1e293b" stroke="#64748b"/>
<text x="36" y="2318" fill="#94a3b8" font-family="Helvetica, Arial, sans-serif" font-size="12">state transition</text>
<text x="36" y="2339" fill="#e5e7eb" font-family="Helvetica, Arial, sans-serif" font-size="14" font-weight="700">RushCashClosed → RushPayroll</text>
<line x1="2200" y1="2354" x2="2920" y2="2354" stroke="#93c5fd" stroke-width="2.4" marker-end="url(#arrow)"/>
<text x="2560" y="2316" text-anchor="middle" fill="#e5e7eb" font-family="Helvetica, Arial, sans-serif" font-size="14">CashDrawerCounted</text>
<circle cx="2200" cy="2354" r="4" fill="#93c5fd"/>
<circle cx="2920" cy="2354" r="4" fill="#93c5fd"/>
<rect x="24" y="2456" width="210" height="52" rx="8" fill="#1e293b" stroke="#64748b"/>
<text x="36" y="2474" fill="#94a3b8" font-family="Helvetica, Arial, sans-serif" font-size="12">state transition</text>
<text x="36" y="2495" fill="#e5e7eb" font-family="Helvetica, Arial, sans-serif" font-size="14" font-weight="700">RushPayroll → SoldOutClosed</text>
<line x1="2920" y1="2510" x2="1000" y2="2510" stroke="#93c5fd" stroke-width="2.4" marker-end="url(#arrow)"/>
<text x="1960" y="2472" text-anchor="middle" fill="#e5e7eb" font-family="Helvetica, Arial, sans-serif" font-size="14">PayrollAccrued</text>
<circle cx="2920" cy="2510" r="4" fill="#93c5fd"/>
<circle cx="1000" cy="2510" r="4" fill="#93c5fd"/>
<rect x="24" y="2680" width="3432" height="46" rx="8" fill="#052e16" stroke="#22c55e"/>
<text x="44" y="2709" fill="#bbf7d0" font-family="Helvetica, Arial, sans-serif" font-size="16" font-weight="700">outcome: SoldOutClosed</text>
</svg>
