<svg xmlns="http://www.w3.org/2000/svg" width="2040" height="1646" viewBox="0 0 2040 1646">
<defs>
  <marker id="arrow" markerWidth="10" markerHeight="10" refX="8" refY="3" orient="auto" markerUnits="strokeWidth"><path d="M0,0 L0,6 L9,3 z" fill="#93c5fd"/></marker>
</defs>
<rect width="100%" height="100%" fill="#0f172a"/>
<text x="24" y="36" fill="#e5e7eb" font-family="Helvetica, Arial, sans-serif" font-size="24" font-weight="700">llm_design_workbench version 1 interaction path 3: FilesSaved</text>
<rect x="205" y="54" width="150" height="38" rx="8" fill="#111827" stroke="#64748b"/>
<text x="280" y="78" text-anchor="middle" fill="#e5e7eb" font-family="Helvetica, Arial, sans-serif" font-size="16" font-weight="700">user</text>
<line x1="280" y1="62" x2="280" y2="1574" stroke="#475569" stroke-width="2" stroke-dasharray="7 7"/>
<rect x="445" y="54" width="150" height="38" rx="8" fill="#111827" stroke="#64748b"/>
<text x="520" y="78" text-anchor="middle" fill="#e5e7eb" font-family="Helvetica, Arial, sans-serif" font-size="16" font-weight="700">browser</text>
<line x1="520" y1="62" x2="520" y2="1574" stroke="#475569" stroke-width="2" stroke-dasharray="7 7"/>
<rect x="685" y="54" width="150" height="38" rx="8" fill="#111827" stroke="#64748b"/>
<text x="760" y="78" text-anchor="middle" fill="#e5e7eb" font-family="Helvetica, Arial, sans-serif" font-size="16" font-weight="700">specweb</text>
<line x1="760" y1="62" x2="760" y2="1574" stroke="#475569" stroke-width="2" stroke-dasharray="7 7"/>
<rect x="925" y="54" width="150" height="38" rx="8" fill="#111827" stroke="#64748b"/>
<text x="1000" y="78" text-anchor="middle" fill="#e5e7eb" font-family="Helvetica, Arial, sans-serif" font-size="16" font-weight="700">compiler</text>
<line x1="1000" y1="62" x2="1000" y2="1574" stroke="#475569" stroke-width="2" stroke-dasharray="7 7"/>
<rect x="1165" y="54" width="150" height="38" rx="8" fill="#111827" stroke="#64748b"/>
<text x="1240" y="78" text-anchor="middle" fill="#e5e7eb" font-family="Helvetica, Arial, sans-serif" font-size="16" font-weight="700">graphviz</text>
<line x1="1240" y1="62" x2="1240" y2="1574" stroke="#475569" stroke-width="2" stroke-dasharray="7 7"/>
<rect x="1405" y="54" width="150" height="38" rx="8" fill="#111827" stroke="#64748b"/>
<text x="1480" y="78" text-anchor="middle" fill="#e5e7eb" font-family="Helvetica, Arial, sans-serif" font-size="16" font-weight="700">openai</text>
<line x1="1480" y1="62" x2="1480" y2="1574" stroke="#475569" stroke-width="2" stroke-dasharray="7 7"/>
<rect x="1645" y="54" width="150" height="38" rx="8" fill="#111827" stroke="#64748b"/>
<text x="1720" y="78" text-anchor="middle" fill="#e5e7eb" font-family="Helvetica, Arial, sans-serif" font-size="16" font-weight="700">repository</text>
<line x1="1720" y1="62" x2="1720" y2="1574" stroke="#475569" stroke-width="2" stroke-dasharray="7 7"/>
<rect x="24" y="116" width="210" height="52" rx="8" fill="#1e293b" stroke="#64748b"/>
<text x="36" y="134" fill="#94a3b8" font-family="Helvetica, Arial, sans-serif" font-size="12">state transition</text>
<text x="36" y="155" fill="#e5e7eb" font-family="Helvetica, Arial, sans-serif" font-size="14" font-weight="700">Editing → PromptEntered</text>
<line x1="280" y1="170" x2="520" y2="170" stroke="#93c5fd" stroke-width="2.4" marker-end="url(#arrow)"/>
<text x="400" y="132" text-anchor="middle" fill="#e5e7eb" font-family="Helvetica, Arial, sans-serif" font-size="14">UserPrompt as prompt</text>
<circle cx="280" cy="170" r="4" fill="#93c5fd"/>
<circle cx="520" cy="170" r="4" fill="#93c5fd"/>
<rect x="24" y="272" width="210" height="52" rx="8" fill="#1e293b" stroke="#64748b"/>
<text x="36" y="290" fill="#94a3b8" font-family="Helvetica, Arial, sans-serif" font-size="12">state transition</text>
<text x="36" y="311" fill="#e5e7eb" font-family="Helvetica, Arial, sans-serif" font-size="14" font-weight="700">PromptEntered → ServerReceived</text>
<line x1="520" y1="326" x2="760" y2="326" stroke="#93c5fd" stroke-width="2.4" marker-end="url(#arrow)"/>
<text x="640" y="288" text-anchor="middle" fill="#e5e7eb" font-family="Helvetica, Arial, sans-serif" font-size="14">EditedFiles as files</text>
<circle cx="520" cy="326" r="4" fill="#93c5fd"/>
<circle cx="760" cy="326" r="4" fill="#93c5fd"/>
<rect x="24" y="428" width="210" height="52" rx="8" fill="#1e293b" stroke="#64748b"/>
<text x="36" y="446" fill="#94a3b8" font-family="Helvetica, Arial, sans-serif" font-size="12">state transition</text>
<text x="36" y="467" fill="#e5e7eb" font-family="Helvetica, Arial, sans-serif" font-size="14" font-weight="700">ServerReceived → Compiling</text>
<line x1="760" y1="482" x2="1000" y2="482" stroke="#93c5fd" stroke-width="2.4" marker-end="url(#arrow)"/>
<text x="880" y="444" text-anchor="middle" fill="#e5e7eb" font-family="Helvetica, Arial, sans-serif" font-size="14">CompileRequest as compile</text>
<text x="880" y="462" text-anchor="middle" fill="#e5e7eb" font-family="Helvetica, Arial, sans-serif" font-size="14">when compile.spec_path == files.spec_path</text>
<circle cx="760" cy="482" r="4" fill="#93c5fd"/>
<circle cx="1000" cy="482" r="4" fill="#93c5fd"/>
<rect x="24" y="584" width="210" height="52" rx="8" fill="#1e293b" stroke="#64748b"/>
<text x="36" y="602" fill="#94a3b8" font-family="Helvetica, Arial, sans-serif" font-size="12">state transition</text>
<text x="36" y="623" fill="#e5e7eb" font-family="Helvetica, Arial, sans-serif" font-size="14" font-weight="700">Compiling → RenderingDiagrams</text>
<line x1="1000" y1="638" x2="1240" y2="638" stroke="#93c5fd" stroke-width="2.4" marker-end="url(#arrow)"/>
<text x="1120" y="600" text-anchor="middle" fill="#e5e7eb" font-family="Helvetica, Arial, sans-serif" font-size="14">CompileEvidence</text>
<circle cx="1000" cy="638" r="4" fill="#93c5fd"/>
<circle cx="1240" cy="638" r="4" fill="#93c5fd"/>
<rect x="24" y="740" width="210" height="52" rx="8" fill="#1e293b" stroke="#64748b"/>
<text x="36" y="758" fill="#94a3b8" font-family="Helvetica, Arial, sans-serif" font-size="12">state transition</text>
<text x="36" y="779" fill="#e5e7eb" font-family="Helvetica, Arial, sans-serif" font-size="14" font-weight="700">RenderingDiagrams → EvidenceReady</text>
<line x1="1240" y1="794" x2="760" y2="794" stroke="#93c5fd" stroke-width="2.4" marker-end="url(#arrow)"/>
<text x="1000" y="756" text-anchor="middle" fill="#e5e7eb" font-family="Helvetica, Arial, sans-serif" font-size="14">EvidencePanelUpdate as evidence</text>
<circle cx="1240" cy="794" r="4" fill="#93c5fd"/>
<circle cx="760" cy="794" r="4" fill="#93c5fd"/>
<rect x="24" y="896" width="210" height="52" rx="8" fill="#1e293b" stroke="#64748b"/>
<text x="36" y="914" fill="#94a3b8" font-family="Helvetica, Arial, sans-serif" font-size="12">state transition</text>
<text x="36" y="935" fill="#e5e7eb" font-family="Helvetica, Arial, sans-serif" font-size="14" font-weight="700">EvidenceReady → LocalResponse</text>
<line x1="760" y1="950" x2="520" y2="950" stroke="#93c5fd" stroke-width="2.4" marker-end="url(#arrow)"/>
<text x="640" y="912" text-anchor="middle" fill="#e5e7eb" font-family="Helvetica, Arial, sans-serif" font-size="14">AssistantText</text>
<circle cx="760" cy="950" r="4" fill="#93c5fd"/>
<circle cx="520" cy="950" r="4" fill="#93c5fd"/>
<rect x="24" y="1052" width="210" height="52" rx="8" fill="#1e293b" stroke="#64748b"/>
<text x="36" y="1070" fill="#94a3b8" font-family="Helvetica, Arial, sans-serif" font-size="12">state transition</text>
<text x="36" y="1091" fill="#e5e7eb" font-family="Helvetica, Arial, sans-serif" font-size="14" font-weight="700">LocalResponse → AnswerDisplayed</text>
<line x1="760" y1="1106" x2="520" y2="1106" stroke="#93c5fd" stroke-width="2.4" marker-end="url(#arrow)"/>
<text x="640" y="1068" text-anchor="middle" fill="#e5e7eb" font-family="Helvetica, Arial, sans-serif" font-size="14">EvidencePanelUpdate</text>
<circle cx="760" cy="1106" r="4" fill="#93c5fd"/>
<circle cx="520" cy="1106" r="4" fill="#93c5fd"/>
<rect x="24" y="1208" width="210" height="52" rx="8" fill="#1e293b" stroke="#64748b"/>
<text x="36" y="1226" fill="#94a3b8" font-family="Helvetica, Arial, sans-serif" font-size="12">state transition</text>
<text x="36" y="1247" fill="#e5e7eb" font-family="Helvetica, Arial, sans-serif" font-size="14" font-weight="700">AnswerDisplayed → SavingFiles</text>
<line x1="520" y1="1262" x2="1720" y2="1262" stroke="#93c5fd" stroke-width="2.4" marker-end="url(#arrow)"/>
<text x="1120" y="1224" text-anchor="middle" fill="#e5e7eb" font-family="Helvetica, Arial, sans-serif" font-size="14">EditedFiles</text>
<circle cx="520" cy="1262" r="4" fill="#93c5fd"/>
<circle cx="1720" cy="1262" r="4" fill="#93c5fd"/>
<rect x="24" y="1364" width="210" height="52" rx="8" fill="#1e293b" stroke="#64748b"/>
<text x="36" y="1382" fill="#94a3b8" font-family="Helvetica, Arial, sans-serif" font-size="12">state transition</text>
<text x="36" y="1403" fill="#e5e7eb" font-family="Helvetica, Arial, sans-serif" font-size="14" font-weight="700">SavingFiles → FilesSaved</text>
<line x1="1720" y1="1418" x2="520" y2="1418" stroke="#93c5fd" stroke-width="2.4" marker-end="url(#arrow)"/>
<text x="1120" y="1380" text-anchor="middle" fill="#e5e7eb" font-family="Helvetica, Arial, sans-serif" font-size="14">SaveResult</text>
<circle cx="1720" cy="1418" r="4" fill="#93c5fd"/>
<circle cx="520" cy="1418" r="4" fill="#93c5fd"/>
<rect x="24" y="1588" width="1992" height="46" rx="8" fill="#052e16" stroke="#22c55e"/>
<text x="44" y="1617" fill="#bbf7d0" font-family="Helvetica, Arial, sans-serif" font-size="16" font-weight="700">outcome: FilesSaved</text>
</svg>
