<svg xmlns="http://www.w3.org/2000/svg" width="1080" height="1022" viewBox="0 0 1080 1022">
<defs>
  <marker id="arrow" markerWidth="10" markerHeight="10" refX="8" refY="3" orient="auto" markerUnits="strokeWidth"><path d="M0,0 L0,6 L9,3 z" fill="#93c5fd"/></marker>
</defs>
<rect width="100%" height="100%" fill="#0f172a"/>
<text x="24" y="36" fill="#e5e7eb" font-family="Helvetica, Arial, sans-serif" font-size="24" font-weight="700">reservation version 2 interaction path 2: Cancelled</text>
<rect x="205" y="54" width="150" height="38" rx="8" fill="#111827" stroke="#64748b"/>
<text x="280" y="78" text-anchor="middle" fill="#e5e7eb" font-family="Helvetica, Arial, sans-serif" font-size="16" font-weight="700">client</text>
<line x1="280" y1="62" x2="280" y2="950" stroke="#475569" stroke-width="2" stroke-dasharray="7 7"/>
<rect x="445" y="54" width="150" height="38" rx="8" fill="#111827" stroke="#64748b"/>
<text x="520" y="78" text-anchor="middle" fill="#e5e7eb" font-family="Helvetica, Arial, sans-serif" font-size="16" font-weight="700">broker</text>
<line x1="520" y1="62" x2="520" y2="950" stroke="#475569" stroke-width="2" stroke-dasharray="7 7"/>
<rect x="685" y="54" width="150" height="38" rx="8" fill="#111827" stroke="#64748b"/>
<text x="760" y="78" text-anchor="middle" fill="#e5e7eb" font-family="Helvetica, Arial, sans-serif" font-size="16" font-weight="700">supplier</text>
<line x1="760" y1="62" x2="760" y2="950" stroke="#475569" stroke-width="2" stroke-dasharray="7 7"/>
<rect x="24" y="116" width="210" height="52" rx="8" fill="#1e293b" stroke="#64748b"/>
<text x="36" y="134" fill="#94a3b8" font-family="Helvetica, Arial, sans-serif" font-size="12">state transition</text>
<text x="36" y="155" fill="#e5e7eb" font-family="Helvetica, Arial, sans-serif" font-size="14" font-weight="700">Idle → AwaitSupplierHold</text>
<line x1="280" y1="170" x2="520" y2="170" stroke="#93c5fd" stroke-width="2.4" marker-end="url(#arrow)"/>
<text x="400" y="132" text-anchor="middle" fill="#e5e7eb" font-family="Helvetica, Arial, sans-serif" font-size="14">CreateReservation</text>
<text x="400" y="150" text-anchor="middle" fill="#e5e7eb" font-family="Helvetica, Arial, sans-serif" font-size="14">when msg.protocol_version == &#34;2&#34;</text>
<circle cx="280" cy="170" r="4" fill="#93c5fd"/>
<circle cx="520" cy="170" r="4" fill="#93c5fd"/>
<rect x="24" y="272" width="210" height="52" rx="8" fill="#1e293b" stroke="#64748b"/>
<text x="36" y="290" fill="#94a3b8" font-family="Helvetica, Arial, sans-serif" font-size="12">state transition</text>
<text x="36" y="311" fill="#e5e7eb" font-family="Helvetica, Arial, sans-serif" font-size="14" font-weight="700">AwaitSupplierHold → SupplierEvaluating</text>
<line x1="520" y1="326" x2="760" y2="326" stroke="#93c5fd" stroke-width="2.4" marker-end="url(#arrow)"/>
<text x="640" y="288" text-anchor="middle" fill="#e5e7eb" font-family="Helvetica, Arial, sans-serif" font-size="14">HoldRequest</text>
<text x="640" y="306" text-anchor="middle" fill="#e5e7eb" font-family="Helvetica, Arial, sans-serif" font-size="14">when msg.protocol_version == &#34;2&#34;</text>
<circle cx="520" cy="326" r="4" fill="#93c5fd"/>
<circle cx="760" cy="326" r="4" fill="#93c5fd"/>
<rect x="24" y="428" width="210" height="52" rx="8" fill="#1e293b" stroke="#64748b"/>
<text x="36" y="446" fill="#94a3b8" font-family="Helvetica, Arial, sans-serif" font-size="12">state transition</text>
<text x="36" y="467" fill="#e5e7eb" font-family="Helvetica, Arial, sans-serif" font-size="14" font-weight="700">SupplierEvaluating → Held</text>
<line x1="760" y1="482" x2="520" y2="482" stroke="#93c5fd" stroke-width="2.4" marker-end="url(#arrow)"/>
<text x="640" y="444" text-anchor="middle" fill="#e5e7eb" font-family="Helvetica, Arial, sans-serif" font-size="14">HoldGranted</text>
<text x="640" y="462" text-anchor="middle" fill="#e5e7eb" font-family="Helvetica, Arial, sans-serif" font-size="14">when msg.protocol_version == &#34;2&#34;</text>
<circle cx="760" cy="482" r="4" fill="#93c5fd"/>
<circle cx="520" cy="482" r="4" fill="#93c5fd"/>
<rect x="24" y="584" width="210" height="52" rx="8" fill="#1e293b" stroke="#64748b"/>
<text x="36" y="602" fill="#94a3b8" font-family="Helvetica, Arial, sans-serif" font-size="12">state transition</text>
<text x="36" y="623" fill="#e5e7eb" font-family="Helvetica, Arial, sans-serif" font-size="14" font-weight="700">Held → AwaitConfirmation</text>
<line x1="280" y1="638" x2="520" y2="638" stroke="#93c5fd" stroke-width="2.4" marker-end="url(#arrow)"/>
<text x="400" y="600" text-anchor="middle" fill="#e5e7eb" font-family="Helvetica, Arial, sans-serif" font-size="14">ConfirmReservation</text>
<text x="400" y="618" text-anchor="middle" fill="#e5e7eb" font-family="Helvetica, Arial, sans-serif" font-size="14">when msg.protocol_version == &#34;2&#34;</text>
<circle cx="280" cy="638" r="4" fill="#93c5fd"/>
<circle cx="520" cy="638" r="4" fill="#93c5fd"/>
<rect x="24" y="740" width="210" height="52" rx="8" fill="#1e293b" stroke="#64748b"/>
<text x="36" y="758" fill="#94a3b8" font-family="Helvetica, Arial, sans-serif" font-size="12">state transition</text>
<text x="36" y="779" fill="#e5e7eb" font-family="Helvetica, Arial, sans-serif" font-size="14" font-weight="700">AwaitConfirmation → Cancelled</text>
<line x1="520" y1="794" x2="280" y2="794" stroke="#93c5fd" stroke-width="2.4" marker-end="url(#arrow)"/>
<text x="400" y="756" text-anchor="middle" fill="#e5e7eb" font-family="Helvetica, Arial, sans-serif" font-size="14">ReservationCancelled</text>
<text x="400" y="774" text-anchor="middle" fill="#e5e7eb" font-family="Helvetica, Arial, sans-serif" font-size="14">when msg.protocol_version == &#34;2&#34;</text>
<circle cx="520" cy="794" r="4" fill="#93c5fd"/>
<circle cx="280" cy="794" r="4" fill="#93c5fd"/>
<rect x="24" y="964" width="1032" height="46" rx="8" fill="#052e16" stroke="#22c55e"/>
<text x="44" y="993" fill="#bbf7d0" font-family="Helvetica, Arial, sans-serif" font-size="16" font-weight="700">outcome: Cancelled</text>
</svg>
